<?xml version="1.0" encoding="utf-8"?>
<!-- Generator: Adobe Illustrator 24.2.3, SVG Export Plug-In . SVG Version: 6.00 Build 0)  -->
<svg version="1.1" id="Layer_1" xmlns="http://www.w3.org/2000/svg" xmlns:xlink="http://www.w3.org/1999/xlink" x="0px" y="0px"
	 viewBox="0 0 50 52" style="enable-background:new 0 0 50 52;" xml:space="preserve">
<style type="text/css">
	.st0{fill-rule:evenodd;clip-rule:evenodd;fill:#6B7280;}
</style>
<path class="st0" d="M49.6,11.6c0,0.1,0,0.1,0,0.2v11c0,0.3-0.2,0.6-0.4,0.7L40,28.7v10.5c0,0.3-0.2,0.5-0.4,0.7L20.4,51
	c0,0-0.1,0-0.1,0.1c0,0,0,0-0.1,0c-0.1,0-0.3,0-0.4,0c0,0,0,0-0.1,0c0,0-0.1,0-0.1-0.1L0.4,39.9C0.2,39.8,0,39.5,0,39.3V6.3
	c0-0.1,0-0.1,0-0.2c0,0,0,0,0-0.1c0,0,0-0.1,0.1-0.1c0,0,0,0,0.1-0.1c0,0,0-0.1,0.1-0.1c0,0,0.1,0,0.1-0.1c0,0,0.1-0.1,0.1-0.1h0
	L10,0.1c0.2-0.1,0.6-0.1,0.8,0l9.6,5.5h0c0,0,0.1,0,0.1,0.1c0,0,0.1,0,0.1,0.1c0,0,0,0.1,0.1,0.1c0,0,0,0,0.1,0.1c0,0,0,0.1,0.1,0.1
	c0,0,0,0,0,0.1c0,0.1,0,0.1,0,0.2v20.6l8-4.6V11.8c0-0.1,0-0.1,0-0.2c0,0,0,0,0-0.1c0,0,0-0.1,0.1-0.1c0,0,0,0,0.1-0.1
	c0,0,0-0.1,0.1-0.1c0,0,0.1,0,0.1-0.1c0,0,0.1-0.1,0.1-0.1h0l9.6-5.5c0.2-0.1,0.6-0.1,0.8,0l9.6,5.5c0,0,0.1,0,0.1,0.1
	c0,0,0.1,0,0.1,0.1c0,0,0,0.1,0.1,0.1c0,0,0,0,0.1,0.1C49.6,11.4,49.6,11.5,49.6,11.6C49.6,11.5,49.6,11.5,49.6,11.6z M48.1,22.3
	v-9.1l-3.4,1.9L40,17.8v9.1L48.1,22.3L48.1,22.3z M38.4,38.8v-9.1l-4.6,2.6l-13,7.4v9.2C20.8,48.9,38.4,38.8,38.4,38.8z M1.6,7.7
	v31.1l17.6,10.1v-9.2L10,34.5l0,0l0,0c0,0-0.1,0-0.1-0.1c0,0-0.1,0-0.1-0.1l0,0c0,0,0-0.1-0.1-0.1c0,0,0,0-0.1-0.1l0,0
	c0,0,0-0.1,0-0.1c0,0,0-0.1,0-0.1v0c0,0,0-0.1,0-0.1c0,0,0-0.1,0-0.1v0V12.3L5,9.7L1.6,7.7L1.6,7.7z M10.4,1.7l-8,4.6l8,4.6l8-4.6
	L10.4,1.7L10.4,1.7z M14.6,30.5l4.6-2.7V7.7l-3.4,1.9l-4.6,2.7v20.1C11.2,32.4,14.6,30.5,14.6,30.5z M39.2,7.2l-8,4.6l8,4.6l8-4.6
	C47.2,11.8,39.2,7.2,39.2,7.2z M38.4,17.8l-4.6-2.7l-3.4-1.9v9.1l4.6,2.7l3.4,1.9C38.4,26.9,38.4,17.8,38.4,17.8z M20,38.3l11.7-6.7
	l5.9-3.4l-8-4.6L20.4,29L12,33.8C12,33.8,20,38.3,20,38.3z"/>
</svg>
